<svg width="104" height="113" viewBox="0 0 104 113" fill="none" xmlns="http://www.w3.org/2000/svg">
<g clip-path="url(#clip0_210_357)">
<path d="M59.8255 22.4765C59.8638 22.2169 59.8547 21.9517 59.7988 21.696C59.743 21.4403 59.6415 21.1991 59.5001 20.9862C59.3587 20.7732 59.1802 20.5927 58.9748 20.4549C58.7694 20.3171 58.5411 20.2248 58.3029 20.1831C57.8219 20.099 57.33 20.2266 56.9353 20.5378C56.5406 20.8489 56.2756 21.3182 56.1984 21.8423L51.6219 53.2061L39.098 56.8425C38.2278 53.988 36.4055 51.5937 33.9922 50.1339C31.5788 48.674 28.7503 48.255 26.0669 48.9599C23.3835 49.6648 21.0409 51.4421 19.503 53.9399C17.9651 56.4377 17.3441 59.4737 17.7629 62.4468C18.1818 65.4198 19.61 68.1131 21.7647 69.9931C23.9194 71.8731 26.6434 72.8027 29.3973 72.5979C32.1511 72.3931 34.734 71.0688 36.6343 68.8873C38.5347 66.7057 39.6139 63.826 39.6582 60.8185L50.9873 57.5269L49.1427 70.1491C46.402 70.5071 43.8847 71.9736 42.0892 74.2582C40.2938 76.5429 39.3512 79.4789 39.448 82.485C39.5449 85.491 40.6743 88.3478 42.6124 90.4895C44.5505 92.6312 47.156 93.9017 49.9129 94.0493C52.6699 94.1969 55.3772 93.2109 57.4986 91.2866C59.62 89.3622 61.0009 86.6398 61.3678 83.6586C61.7346 80.6774 61.0607 77.6548 59.4794 75.1894C57.8982 72.724 55.5249 70.9956 52.8297 70.3465L59.828 22.4735L59.8255 22.4765ZM45.5396 88.0022C44.0936 86.5813 43.2248 84.5927 43.1244 82.4738C43.0239 80.3549 43.7 78.2793 45.0039 76.7036C46.3078 75.1279 48.1327 74.1812 50.0772 74.0717C52.0216 73.9622 53.9264 74.6989 55.3724 76.1198C56.8184 77.5407 57.6871 79.5293 57.7876 81.6482C57.8881 83.7671 57.212 85.8427 55.9081 87.4184C54.6042 88.9942 52.7793 89.9409 50.8348 90.0504C48.8903 90.1598 46.9856 89.4231 45.5396 88.0022ZM23.1955 55.2738C24.4994 53.6981 26.3243 52.7514 28.2688 52.6419C30.2133 52.5325 32.118 53.2692 33.564 54.6901C35.01 56.111 35.8787 58.0996 35.9792 60.2185C36.0797 62.3374 35.4036 64.413 34.0997 65.9887C32.7958 67.5644 30.9709 68.5111 29.0264 68.6206C27.0819 68.7301 25.1772 67.9934 23.7312 66.5725C22.2852 65.1516 21.4164 63.163 21.316 61.0441C21.2155 58.9252 21.8916 56.8496 23.1955 55.2738ZM58.7525 55.2629L59.3843 50.9394L82.0728 44.3375C82.5348 44.2257 83.0185 44.3126 83.423 44.5802C83.8276 44.8477 84.1216 45.2752 84.2439 45.7733C84.3661 46.2715 84.307 46.8019 84.0789 47.2537C83.8509 47.7055 83.4715 48.0439 83.02 48.1982L58.75 55.2659L58.7525 55.2629Z" fill="black"/>
</g>
<defs>
<clipPath id="clip0_210_357">
<rect width="76.4379" height="77.116" fill="white" transform="matrix(0.713272 0.700887 -0.637531 0.770424 49.1641 0)"/>
</clipPath>
</defs>
</svg>
